<svg width="187" height="188" viewBox="0 0 187 188" fill="none" xmlns="http://www.w3.org/2000/svg">
<g clip-path="url(#clip0_162_329)">
<path d="M159.991 75.7653L152.824 78.0614L152.586 77.3087L155.894 76.2474L154.451 71.7603L151.143 72.8215L150.901 72.0611L158.068 69.765L158.311 70.5255L155.117 71.5518L156.56 76.0389L159.753 75.0126L159.991 75.7653Z" fill="#D59B78"/>
<path d="M156.25 85.2323L155.547 81.0944L153.414 80.5354L153.273 79.7168L161.266 81.8605L161.393 82.6359L154.547 87.2817L154.409 86.4507L156.25 85.2323ZM156.841 84.8396L160.522 82.3828L156.233 81.2783L156.841 84.8396Z" fill="#D59B78"/>
<path d="M162.353 93.5805L154.832 93.8859L154.802 93.1168L157.918 92.9946C157.536 92.1903 157.325 91.4119 157.295 90.6428C157.262 89.7614 157.448 89.0636 157.859 88.5571C158.271 88.0507 158.861 87.7825 159.637 87.7481L162.116 87.6519L162.148 88.4411L159.753 88.5402C159.177 88.5626 158.735 88.7657 158.425 89.1417C158.114 89.5176 157.981 90.0395 158.001 90.7009C158.03 91.45 158.24 92.2084 158.631 92.976L162.332 92.8269L162.353 93.5805Z" fill="#D59B78"/>
<path d="M161.648 103.737L154.156 102.981L154.233 102.201L157.69 102.545L158.158 97.8549L154.701 97.5116L154.782 96.7198L162.274 97.4761L162.193 98.2679L158.853 97.9297L158.385 102.62L161.725 102.958L161.648 103.737Z" fill="#D59B78"/>
<path d="M160.964 107.589L160.774 108.351L154.728 106.821L159.594 113.027L159.419 113.728L152.127 111.884L152.318 111.122L158.351 112.648L153.497 106.445L153.672 105.744L160.964 107.589Z" fill="#D59B78"/>
<path d="M156.834 120.862L156.495 121.565L150.876 118.857L154.408 125.906L154.098 126.55L147.317 123.282L147.656 122.579L153.27 125.279L149.751 118.234L150.061 117.589L156.834 120.862Z" fill="#D59B78"/>
<path d="M146.146 131.234C145.724 131.292 145.322 131.203 144.941 130.957C144.574 130.714 144.325 130.392 144.205 129.985C144.084 129.579 144.065 129.134 144.165 128.663C144.265 128.191 144.466 127.733 144.757 127.286C145.032 126.868 145.367 126.499 145.774 126.181C146.173 125.868 146.616 125.633 147.101 125.487L147.419 126.039C147.005 126.164 146.619 126.355 146.263 126.634C145.906 126.912 145.612 127.227 145.373 127.582C145.149 127.929 144.997 128.276 144.914 128.634C144.831 128.992 144.835 129.321 144.925 129.621C145.016 129.921 145.199 130.167 145.471 130.351C145.839 130.594 146.215 130.636 146.598 130.476C146.982 130.317 147.347 129.982 147.69 129.464L148.576 128.114L149.111 128.467L148.247 129.784C147.957 130.231 147.828 130.636 147.847 131.008C147.873 131.376 148.056 131.674 148.39 131.895C148.758 132.138 149.161 132.174 149.576 131.997C149.999 131.815 150.369 131.488 150.681 131.007C150.88 130.706 151.032 130.38 151.143 130.016C151.254 129.652 151.315 129.275 151.328 128.884L152.026 129.019C151.99 129.889 151.733 130.679 151.255 131.41C150.971 131.833 150.655 132.181 150.277 132.441C149.912 132.703 149.524 132.855 149.133 132.895C148.742 132.934 148.367 132.84 148.023 132.604C147.689 132.383 147.463 132.099 147.338 131.757C147.221 131.411 147.215 131.042 147.331 130.633C146.978 130.972 146.576 131.172 146.146 131.234Z" fill="#D59B78"/>
<path d="M142.304 142.498L136.684 137.494L137.192 136.922L141.688 140.929L139.867 135.356L140.119 135.076L145.844 136.211L141.373 132.231L141.88 131.658L147.501 136.662L147.068 137.15L140.73 135.883L142.749 142.014L142.304 142.498Z" fill="#D59B78"/>
<path d="M130.936 143.307L130.495 142.775L134.577 139.363L139.4 145.137L135.445 148.446L135.003 147.914L138.351 145.112L136.638 143.058L133.653 145.558L133.216 145.034L136.201 142.534L134.406 140.393L130.936 143.307Z" fill="#D59B78"/>
<path d="M127.517 153.727L123.501 147.362L124.171 146.944L126.021 149.881L130.005 147.374L128.154 144.437L128.831 144.015L132.848 150.38L132.171 150.802L130.378 147.966L126.394 150.473L128.187 153.309L127.517 153.727Z" fill="#D59B78"/>
<path d="M116.416 151.504L116.13 150.883L120.966 148.67L124.1 155.513L119.412 157.661L119.126 157.039L123.095 155.224L121.977 152.785L118.434 154.407L118.152 153.793L121.687 152.176L120.519 149.632L116.416 151.504Z" fill="#D59B78"/>
<path d="M110.368 160.647L108.184 153.442L108.933 153.217L109.94 156.537L114.445 155.167L113.439 151.847L114.203 151.612L116.387 158.818L115.623 159.052L114.646 155.838L110.141 157.208L111.117 160.422L110.368 160.647Z" fill="#D59B78"/>
<path d="M106.529 161.507L105.757 161.622L104.852 155.448L100.986 162.317L100.27 162.42L99.1748 154.969L99.9467 154.854L100.848 161.02L104.71 154.164L105.427 154.061L106.529 161.507Z" fill="#D59B78"/>
<path d="M91.0455 162.695L91.0138 155.168L91.8006 155.169L91.8135 157.449L94.0651 157.443C94.1696 157.444 94.3063 157.448 94.492 157.465L96.0672 155.159L96.9141 155.156L95.215 157.607C95.7671 157.775 96.1896 158.058 96.4839 158.478C96.7781 158.899 96.9294 159.411 96.93 160.022C96.9329 160.869 96.6714 161.527 96.1335 161.993C95.5955 162.459 94.8831 162.694 93.9685 162.705L91.0455 162.695ZM95.5842 158.605C95.2193 158.277 94.695 158.104 93.9971 158.113L91.8177 158.119L91.8347 162.001L93.9418 161.995C94.6442 161.994 95.188 161.825 95.5654 161.493C95.9506 161.156 96.1384 160.675 96.1399 160.033C96.1303 159.407 95.9414 158.937 95.5842 158.605Z" fill="#D59B78"/>
<path d="M83.6179 154.811C84.1456 155.242 84.5271 155.777 84.7579 156.41C84.9886 157.042 85.0374 157.718 84.9118 158.432C84.7862 159.146 84.4978 159.758 84.059 160.27C83.6202 160.782 83.0762 161.148 82.4225 161.36C81.7734 161.579 81.0812 161.617 80.3426 161.484C79.7909 161.389 79.2977 161.197 78.8641 160.93C78.4305 160.663 78.0889 160.322 77.8269 159.904L78.4129 159.504C78.884 160.194 79.564 160.619 80.4449 160.783C81.0333 160.889 81.5856 160.86 82.1204 160.675C82.6475 160.495 83.0951 160.195 83.4477 159.785C83.8003 159.374 84.0392 158.874 84.1409 158.298C84.2427 157.721 84.2057 157.173 84.0222 156.658C83.8386 156.143 83.5277 155.712 83.0925 155.353C82.6574 154.993 82.154 154.767 81.5656 154.661C80.6769 154.502 79.8919 154.665 79.2106 155.151L78.81 154.565C79.1976 154.269 79.6435 154.074 80.1432 153.971C80.6428 153.869 81.173 153.874 81.7246 153.969C82.4587 154.094 83.0902 154.381 83.6179 154.811Z" fill="#D59B78"/>
<path d="M71.8134 152.032L72.0226 151.373L77.0969 152.977L74.8398 160.159L69.9168 158.603L70.1261 157.944L74.2876 159.257L75.0893 156.703L71.374 155.536L71.58 154.889L75.2952 156.056L76.1341 153.388L71.8134 152.032Z" fill="#D59B78"/>
<path d="M64.8191 157.478C65.0008 157.829 64.9992 158.202 64.8188 158.606L64.2819 158.357C64.3985 158.093 64.3996 157.844 64.2806 157.603C64.1617 157.361 63.9497 157.173 63.6233 157.02C63.3092 156.87 63.0256 156.826 62.7603 156.887C62.4949 156.947 62.3078 157.106 62.1745 157.359L61.6377 157.11C61.8348 156.717 62.1215 156.479 62.5057 156.392C62.8898 156.305 63.3313 156.37 63.807 156.603C64.3026 156.834 64.6374 157.128 64.8191 157.478ZM66.8883 157.443L66.1777 157.108L68.8288 151.468L61.8193 155.06L61.1666 154.753L64.369 147.936L65.0796 148.271L62.4363 153.906L69.4425 150.327L70.0952 150.633L66.8883 157.443Z" fill="#D59B78"/>
<path d="M53.5282 150.035L57.6366 143.73L58.2843 144.153L56.5871 146.768C57.4636 146.924 58.2229 147.2 58.8706 147.623C59.6141 148.105 60.069 148.66 60.2476 149.291C60.4261 149.923 60.2957 150.557 59.8775 151.213L58.5258 153.297L57.8658 152.871L59.1779 150.861C59.498 150.376 59.5858 149.901 59.4569 149.427C59.328 148.953 58.986 148.54 58.4309 148.187C57.7999 147.775 57.0574 147.511 56.2066 147.381L54.1894 150.481L53.5282 150.035Z" fill="#D59B78"/>
<path d="M50.395 140.396L53.5707 143.138L55.5658 142.203L56.1885 142.744L48.6649 146.198L48.0679 145.683L50.3793 137.735L51.0142 138.279L50.395 140.396ZM50.1947 141.071L48.9208 145.315L52.9264 143.437L50.1947 141.071Z" fill="#D59B78"/>
<path d="M48.1189 135.863C48.2677 136.533 48.2384 137.181 48.0325 137.828C47.8266 138.474 47.4469 139.035 46.9056 139.513C46.3644 139.991 45.7645 140.296 45.0983 140.432C44.4399 140.564 43.7829 140.519 43.1305 140.285C42.4781 140.051 41.9129 139.663 41.4135 139.103C41.0392 138.688 40.767 138.234 40.5937 137.755C40.4203 137.275 40.3514 136.798 40.4024 136.313L41.1195 136.354C41.0656 137.192 41.3314 137.939 41.9335 138.606C42.3257 139.052 42.7861 139.366 43.3149 139.547C43.8436 139.729 44.3717 139.765 44.9114 139.661C45.451 139.556 45.9378 139.306 46.3716 138.911C46.8099 138.523 47.1156 138.067 47.2888 137.543C47.4542 137.023 47.4861 136.487 47.3614 135.948C47.2444 135.405 46.9775 134.907 46.5854 134.461C45.9865 133.782 45.2669 133.432 44.4299 133.397L44.471 132.68C44.9612 132.687 45.4341 132.807 45.8897 133.041C46.3531 133.27 46.7658 133.591 47.1323 134.011C47.6407 134.587 47.9625 135.198 48.1189 135.863Z" fill="#D59B78"/>
<path d="M26.7957 111.742L33.9635 109.446L34.2015 110.198L30.8934 111.26L32.3357 115.747L35.6438 114.686L35.8863 115.446L28.7141 117.734L28.4716 116.974L31.6654 115.948L30.223 111.46L27.0292 112.487L26.7957 111.742Z" fill="#D59B78"/>
<path d="M30.5246 102.271L31.2274 106.409L33.3605 106.968L33.5022 107.787L25.5091 105.643L25.3821 104.868L32.2277 100.222L32.3661 101.053L30.5246 102.271ZM29.9418 102.66L26.2601 105.116L30.5497 106.221L29.9418 102.66Z" fill="#D59B78"/>
<path d="M24.4224 93.9233L31.9429 93.6178L31.9731 94.387L28.8574 94.5092C29.239 95.3135 29.4505 96.0919 29.4807 96.861C29.5137 97.7424 29.3269 98.4402 28.9158 98.9466C28.5047 99.453 27.9147 99.7212 27.138 99.7557L24.659 99.8518L24.6275 99.0627L27.0221 98.9636C27.5988 98.9411 28.0402 98.738 28.3507 98.3621C28.6613 97.9861 28.7945 97.4642 28.7747 96.8028C28.7457 96.0537 28.5354 95.2954 28.144 94.5278L24.4437 94.6769L24.4224 93.9233Z" fill="#D59B78"/>
<path d="M25.1352 83.762L32.6273 84.5183L32.5498 85.2979L29.0929 84.9547L28.6246 89.6445L32.0815 89.9877L32.0007 90.7796L24.5087 90.0233L24.5894 89.2314L27.9296 89.5696L28.3979 84.8798L25.0577 84.5416L25.1352 83.762Z" fill="#D59B78"/>
<path d="M25.8108 79.9151L26.0017 79.1528L32.047 80.6823L27.1814 74.4766L27.3559 73.7755L34.6485 75.6199L34.4576 76.3822L28.4246 74.856L33.278 81.0584L33.1034 81.7594L25.8108 79.9151Z" fill="#D59B78"/>
<path d="M29.9457 66.6498L30.2848 65.9469L35.9032 68.6544L32.3717 61.606L32.6822 60.961L39.4624 64.2293L39.1233 64.9322L33.5094 62.2325L37.0286 69.2777L36.7182 69.9226L29.9457 66.6498Z" fill="#D59B78"/>
<path d="M40.6289 56.2695C41.051 56.2121 41.4537 56.3004 41.8339 56.5467C42.2017 56.7897 42.45 57.1121 42.5708 57.5185C42.6916 57.9248 42.7103 58.3694 42.6103 58.8412C42.5102 59.3129 42.309 59.7707 42.0188 60.2177C41.7429 60.6357 41.4078 61.0051 41.0014 61.3226C40.6028 61.6355 40.1593 61.8708 39.6743 62.0163L39.3561 61.4652C39.7701 61.34 40.156 61.1483 40.5125 60.87C40.8691 60.5916 41.1633 60.2769 41.4028 59.9213C41.6268 59.5746 41.7785 59.2282 41.8613 58.8699C41.9441 58.5116 41.9404 58.1826 41.8501 57.8828C41.7598 57.5831 41.5764 57.3371 41.3043 57.1526C40.9364 56.9096 40.5606 56.8678 40.1768 57.0273C39.793 57.1868 39.4278 57.5218 39.0857 58.0402L38.1962 59.4024L37.6611 59.049L38.5252 57.7324C38.8154 57.2854 38.9436 56.8802 38.9252 56.5079C38.899 56.1401 38.7165 55.8418 38.382 55.6209C38.0141 55.3779 37.6105 55.3418 37.1957 55.5192C36.7731 55.7011 36.4034 56.0284 36.0911 56.5089C35.8925 56.8098 35.7395 57.1362 35.629 57.5002C35.5184 57.8642 35.4568 58.2413 35.4442 58.6315L34.7456 58.4966C34.7816 57.6272 35.0391 56.8368 35.5169 56.1055C35.8006 55.683 36.1168 55.3348 36.4946 55.0753C36.8601 54.8125 37.2484 54.6608 37.6394 54.6214C38.0304 54.5819 38.4054 54.6759 38.7488 54.9123C39.0833 55.1333 39.3091 55.4169 39.434 55.7587C39.5512 56.1051 39.5574 56.4741 39.4415 56.8826C39.81 56.5353 40.2069 56.3268 40.6289 56.2695Z" fill="#D59B78"/>
<path d="M44.4829 45.0087L50.1032 50.0128L49.5957 50.5852L45.0993 46.5779L46.9201 52.1507L46.6647 52.443L40.9435 51.2957L45.4143 55.2764L44.9068 55.8488L39.2866 50.8447L39.7189 50.3571L46.0574 51.6241L44.0384 45.493L44.4829 45.0087Z" fill="#D59B78"/>
<path d="M55.8432 44.2044L56.2847 44.7362L52.2029 48.1485L47.3792 42.374L51.3348 39.0655L51.7763 39.5973L48.4285 42.3995L50.1418 44.4532L53.1265 41.9538L53.5635 42.4777L50.5788 44.9772L52.3737 47.1184L55.8432 44.2044Z" fill="#D59B78"/>
<path d="M59.2621 33.785L63.2783 40.1499L62.609 40.5674L60.7582 37.6305L56.7744 40.1376L58.6252 43.0745L57.9481 43.4964L53.932 37.1315L54.609 36.7095L56.4016 39.5455L60.3853 37.0385L58.5928 34.2025L59.2621 33.785Z" fill="#D59B78"/>
<path d="M70.3706 36.0033L70.6569 36.6246L65.8204 38.8374L62.6867 31.994L67.3745 29.8464L67.6608 30.4677L63.6916 32.2832L64.8099 34.7219L68.3532 33.1005L68.6351 33.714L65.0995 35.3309L66.2683 37.875L70.3706 36.0033Z" fill="#D59B78"/>
<path d="M76.4122 26.8644L78.5963 34.0697L77.8472 34.2953L76.8404 30.9746L72.3345 32.3444L73.3413 35.6651L72.5767 35.8995L70.3926 28.6942L71.1572 28.4597L72.1291 31.666L76.6349 30.2962L75.6586 27.0822L76.4122 26.8644Z" fill="#D59B78"/>
<path d="M80.25 26.0042L81.0219 25.8898L81.9275 32.0634L85.7932 25.1947L86.5096 25.0916L87.6045 32.5428L86.8326 32.6573L85.9315 26.4914L82.0691 33.3478L81.3527 33.4509L80.25 26.0042Z" fill="#D59B78"/>
<path d="M95.734 24.8169L95.7657 32.3437L94.9789 32.3426L94.966 30.0627L92.7144 30.0689C92.6099 30.0671 92.4732 30.0633 92.2875 30.0463L90.7123 32.353L89.8654 32.3554L91.5645 29.9048C91.0124 29.7371 90.5899 29.4532 90.2956 29.0331C90.0014 28.6131 89.8501 28.1001 89.8495 27.4898C89.8466 26.6428 90.1081 25.9847 90.646 25.5188C91.184 25.053 91.8964 24.8176 92.811 24.807L95.734 24.8169ZM91.1986 28.8948C91.5635 29.2223 92.0878 29.3957 92.7857 29.386L94.9651 29.3801L94.9481 25.4983L92.841 25.5039C92.1386 25.5058 91.5948 25.6749 91.2173 26.0066C90.8321 26.3429 90.6443 26.8239 90.6429 27.4664C90.6525 28.0923 90.8336 28.5673 91.1986 28.8948Z" fill="#D59B78"/>
<path d="M103.162 32.7002C102.634 32.27 102.252 31.7347 102.022 31.102C101.791 30.4694 101.742 29.7937 101.868 29.0795C101.993 28.3653 102.282 27.7537 102.72 27.2416C103.159 26.7295 103.703 26.3637 104.357 26.1519C105.006 25.9324 105.698 25.895 106.437 26.0275C106.989 26.123 107.482 26.3143 107.915 26.5815C108.349 26.8486 108.691 27.1896 108.953 27.6076L108.367 28.008C107.895 27.3175 107.216 26.8924 106.335 26.7283C105.746 26.6229 105.194 26.652 104.659 26.8365C104.132 27.0166 103.684 27.3165 103.332 27.7271C102.979 28.1376 102.74 28.6378 102.639 29.2141C102.537 29.7903 102.574 30.3382 102.757 30.8532C102.941 31.3683 103.252 31.7994 103.687 32.1588C104.122 32.5182 104.625 32.7451 105.214 32.8504C106.103 33.0101 106.888 32.8466 107.569 32.3602L107.969 32.9465C107.582 33.2428 107.136 33.4381 106.636 33.5403C106.137 33.6425 105.607 33.638 105.055 33.5426C104.328 33.4134 103.689 33.1304 103.162 32.7002Z" fill="#D59B78"/>
<path d="M114.961 35.4715L114.752 36.1304L109.678 34.5268L111.935 27.3448L116.858 28.9013L116.649 29.5603L112.487 28.2474L111.686 30.8009L115.401 31.9679L115.195 32.6146L111.48 31.4476L110.641 34.1158L114.961 35.4715Z" fill="#D59B78"/>
<path d="M119.886 30.0612L120.597 30.3961L117.946 36.0357L124.955 32.4441L125.608 32.7504L122.406 39.5673L121.695 39.2324L124.338 33.5973L117.332 37.1766L116.679 36.8703L119.886 30.0612ZM121.968 30.029C121.786 29.6785 121.788 29.305 121.968 28.9007L122.505 29.1496C122.388 29.4136 122.387 29.6626 122.506 29.9044C122.625 30.1463 122.837 30.3343 123.164 30.4875C123.478 30.6373 123.761 30.6806 124.027 30.6205C124.292 30.5605 124.479 30.4007 124.612 30.1478L125.149 30.3968C124.952 30.79 124.665 31.028 124.281 31.1153C123.897 31.2025 123.456 31.1366 122.98 30.904C122.477 30.6772 122.142 30.384 121.968 30.029Z" fill="#D59B78"/>
<path d="M133.247 37.4692L129.138 43.7742L128.491 43.3511L130.188 40.736C129.311 40.5797 128.552 40.3039 127.904 39.8808C127.161 39.3993 126.706 38.8443 126.527 38.2126C126.349 37.5808 126.479 36.9466 126.898 36.2912L128.249 34.2066L128.909 34.6329L127.597 36.6428C127.277 37.1277 127.189 37.6028 127.318 38.0769C127.447 38.551 127.789 38.9642 128.344 39.3165C128.975 39.7284 129.718 39.9932 130.568 40.123L132.586 37.0229L133.247 37.4692Z" fill="#D59B78"/>
<path d="M136.384 47.115L133.209 44.3738L131.213 45.3083L130.591 44.7673L138.114 41.3137L138.711 41.8281L136.4 49.7762L135.765 49.232L136.384 47.115ZM136.58 46.4327L137.854 42.1886L133.848 44.0665L136.58 46.4327Z" fill="#D59B78"/>
<path d="M138.656 51.6408C138.507 50.9711 138.537 50.3229 138.742 49.6762C138.948 49.0294 139.328 48.4687 139.869 47.9906C140.411 47.5125 141.01 47.2076 141.677 47.0713C142.335 46.9396 142.992 46.9846 143.644 47.2186C144.297 47.4526 144.862 47.8404 145.362 48.4008C145.736 48.816 146.008 49.2695 146.181 49.749C146.355 50.2285 146.424 50.7063 146.373 51.1912L145.655 51.1497C145.709 50.3113 145.444 49.5643 144.841 48.8977C144.449 48.4513 143.989 48.1376 143.46 47.9564C142.931 47.7752 142.403 47.7386 141.864 47.8431C141.324 47.9477 140.837 48.1977 140.403 48.593C139.965 48.9806 139.659 49.4366 139.486 49.9609C139.321 50.4808 139.289 51.0167 139.414 51.5553C139.531 52.0984 139.797 52.5964 140.19 53.0428C140.788 53.7217 141.508 54.0721 142.345 54.1063L142.304 54.8235C141.814 54.8167 141.341 54.6964 140.885 54.4627C140.422 54.2335 140.009 53.9128 139.643 53.4931C139.134 52.9172 138.813 52.306 138.656 51.6408Z" fill="#D59B78"/>
</g>
<defs>
<clipPath id="clip0_162_329">
<rect width="136" height="138" fill="white" transform="translate(0 68) rotate(-30)"/>
</clipPath>
</defs>
</svg>
